<?xml version="1.0" encoding="UTF-8"?>
<svg width="800px" height="800px" viewBox="0 0 800 800" version="1.1" xmlns="http://www.w3.org/2000/svg">
    <g id="developer" fill="none" fill-rule="evenodd">
        <path d="M400,700 C550,700 650,550 650,400 C650,250 550,100 400,100 C250,100 150,250 150,400 C150,550 250,700 400,700 Z" fill="#1DB954" opacity="0.1"/>
        <g transform="translate(200,200)">
            <path d="M200,300 C310,300 400,210 400,100 C400,-10 310,-100 200,-100 C90,-100 0,-10 0,100 C0,210 90,300 200,300 Z" fill="#1DB954" opacity="0.2"/>
            <path d="M180,220 C240,220 290,170 290,110 C290,50 240,0 180,0 C120,0 70,50 70,110 C70,170 120,220 180,220 Z" fill="#1E1E1E"/>
            <path d="M160,180 C200,180 230,150 230,110 C230,70 200,40 160,40 C120,40 90,70 90,110 C90,150 120,180 160,180 Z" fill="#1DB954"/>
            <rect x="140" y="160" width="80" height="120" rx="10" fill="#1E1E1E"/>
            <path d="M120,280 L240,280 L240,380 C240,390 232,400 220,400 L140,400 C128,400 120,390 120,380 L120,280 Z" fill="#1DB954"/>
            <rect x="100" y="240" width="40" height="80" rx="20" fill="#1E1E1E"/>
            <rect x="220" y="240" width="40" height="80" rx="20" fill="#1E1E1E"/>
        </g>
    </g>
</svg>
